<?xml version="1.0" standalone="no"?>
<!DOCTYPE svg PUBLIC "-//W3C//DTD SVG 20010904//EN"
 "http://www.w3.org/TR/2001/REC-SVG-20010904/DTD/svg10.dtd">
<svg version="1.0" xmlns="http://www.w3.org/2000/svg"
 width="200.000000pt" height="200.000000pt" viewBox="0 0 200.000000 200.000000"
 preserveAspectRatio="xMidYMid meet">
<metadata>
Created by potrace 1.11, written by Peter Selinger 2001-2013
</metadata>
<g transform="translate(0.000000,200.000000) scale(0.100000,-0.100000)"
fill="#000000" stroke="none">
<path d="M370 1446 c-89 -25 -172 -81 -222 -150 -27 -38 -33 -41 -86 -46 l-57
-5 -3 -90 -2 -90 30 -20 c25 -17 30 -27 30 -60 2 -169 67 -290 200 -377 139
-90 344 -80 479 23 23 18 24 18 66 -11 70 -48 145 -37 145 20 0 17 -5 30 -12
30 -9 0 -9 3 0 12 21 21 13 55 -18 81 -16 14 -34 27 -39 29 -7 2 -5 20 4 51
16 55 15 45 15 102 0 39 4 46 29 60 44 22 92 25 131 6 34 -16 35 -19 42 -85 4
-38 12 -81 18 -97 13 -29 7 -49 -14 -49 -19 0 -56 -44 -56 -66 0 -11 5 -25 11
-31 8 -8 8 -13 0 -17 -16 -10 -13 -42 5 -60 25 -26 81 -20 130 13 l43 30 50
-34 c194 -130 458 -72 586 130 41 64 60 137 64 245 1 27 8 40 31 55 l30 20 -2
90 -3 90 -56 5 c-53 5 -59 8 -91 50 -38 51 -140 124 -196 140 -59 18 -164 23
-220 11 -83 -17 -143 -51 -207 -116 -57 -56 -77 -87 -104 -158 -11 -27 -11
-27 -40 -12 -38 19 -111 19 -157 0 -34 -14 -35 -14 -45 13 -50 135 -168 241
-301 272 -57 13 -153 11 -208 -4z"/>
</g>
</svg>
